<svg width="370" height="416" viewBox="0 0 370 416" fill="none" xmlns="http://www.w3.org/2000/svg">
<path d="M0 41C0 22.1438 0 12.7157 5.85786 6.85786C11.7157 1 21.1438 1 40 1H125C143.856 1 153.284 1 159.142 6.85786C165 12.7157 165 22.1438 165 41V210L71.22 327.083C41.5724 364.098 26.7486 382.605 13.3743 377.909C0 373.213 0 349.501 0 302.077V41Z" fill="#FFC5FF"/>
<path d="M205 40C205 21.1438 205 11.7157 210.858 5.85786C216.716 0 226.144 0 245 0H330C348.856 0 358.284 0 364.142 5.85786C370 11.7157 370 21.1438 370 40V209L276.22 326.083C246.572 363.098 231.749 381.605 218.374 376.909C205 372.213 205 348.501 205 301.077V40Z" fill="#FFC5FF"/>
</svg>
